<?xml version="1.0" encoding="utf-8"?>
<!-- Generator: Adobe Illustrator 16.0.3, SVG Export Plug-In . SVG Version: 6.00 Build 0)  -->
<!DOCTYPE svg PUBLIC "-//W3C//DTD SVG 1.1//EN" "http://www.w3.org/Graphics/SVG/1.1/DTD/svg11.dtd">
<svg version="1.1" id="Capa_1" xmlns="http://www.w3.org/2000/svg" xmlns:xlink="http://www.w3.org/1999/xlink" x="0px" y="0px"
	 width="200px" height="200px" viewBox="0 0 200 200" enable-background="new 0 0 200 200" xml:space="preserve">
<g>
	<path fill-rule="evenodd" clip-rule="evenodd" fill="#FF3B30" d="M184.168,86.226c-0.666,4.521-0.938,9.146-2.076,13.544
		c-2.601,10.016-9.971,16.207-18.46,21.103c-9.814,5.662-20.369,8.753-31.8,9.831c-14.406,1.357-28.438,0.566-42.073-4.147
		c-11.111-3.841-21.209-9.331-27.834-19.748c-2.222-3.492-3.564-7.14-4.042-11.151c-1.095-9.202-1.585-18.313,2.372-27.146
		c2.024-4.521,4.853-8.28,8.599-11.364c12.136-9.989,26.353-14.387,41.782-16.196c10.95-1.284,21.726-0.39,32.229,1.912
		c12.408,2.719,23.972,8.031,32.721,17.718c5.043,5.585,8.36,12.201,7.988,20.119c-0.085,1.81-0.013,3.627-0.013,5.439
		C183.763,86.167,183.966,86.197,184.168,86.226z M125.734,108.884c5.232,0.168,15.301-1.753,24.87-5.374
		c7.281-2.755,14.412-6.303,19.397-12.777c4.012-5.209,5.718-10.764,3.326-17.371c-1.897-5.24-5.545-8.863-9.84-11.816
		c-9.2-6.325-19.37-9.786-30.588-11.245c-14.231-1.849-27.946-0.876-41.356,3.991c-7.976,2.895-15.52,6.689-20.893,13.617
		c-4.241,5.469-5.445,11.387-2.487,17.987c2.672,5.971,7.265,10.02,12.726,13.117C93.188,105.988,106.599,108.71,125.734,108.884z"
		/>
	<path fill-rule="evenodd" clip-rule="evenodd" fill="#FF3B30" d="M134.861,136.858c-2.723,5.582-7.005,7.941-10.891,10.49
		c-7.91,5.187-16.722,7.958-25.992,10.032c-9.606,2.15-19.254,2.666-28.737,1.586c-17.308-1.968-33.784-6.676-46.016-20.487
		c-4.548-5.137-7.268-10.965-7.259-17.926c0.005-3.828,0.23-7.675-0.065-11.48c-0.546-7.054,2.171-12.908,6.08-18.435
		c5.301-7.494,19.513-16.638,29.356-17.708c0,2.533,0,5.038,0,8.139c-1.505,0.747-3.25,1.616-5,2.475
		c-5.59,2.75-11.081,5.611-15.376,10.329c-8.493,9.329-7.57,19.553,1.324,27.409c8.577,7.576,18.862,11.78,30.226,13.246
		c5.542,0.715,11.08,1.754,16.64,1.913c3.822,0.106,17.896-1.525,18.083-1.481c0.093,0.022,0.186,0.047,0.277,0.075
		c7.78,2.306,15.798,2.542,23.776,2.858C125.403,138.058,129.552,137.298,134.861,136.858z"/>
	<path fill-rule="evenodd" clip-rule="evenodd" fill="#FF0000" d="M105.479,96.215c10.334,0,19.303,0,28.852,0
		c-0.119-2.37-0.222-4.4-0.319-6.339c-3.118-0.196-5.474-0.344-8.376-0.527c0-4.712,0.129-9.092-0.036-13.462
		c-0.172-4.532,0.78-9.165-0.956-14.3c-6.344,0.968-12.504,1.91-18.355,2.803c-1.026,3.045-1.345,5.114,0.568,6.342
		c2.929-0.317,5.389-0.583,8.035-0.87c0,6.879,0,13.015,0,19.542c-2.805,0.175-5.348,0.333-8.292,0.518
		C106.25,91.87,105.931,93.671,105.479,96.215z"/>
	<path fill-rule="evenodd" clip-rule="evenodd" fill="#FF3B30" d="M105.479,96.215c0.452-2.544,0.771-4.345,1.12-6.293
		c2.944-0.185,5.487-0.343,8.292-0.518c0-6.527,0-12.663,0-19.542c-2.646,0.287-5.106,0.553-8.035,0.87
		c-1.913-1.228-1.595-3.297-0.568-6.342c5.852-0.894,12.012-1.835,18.355-2.803c1.736,5.135,0.784,9.768,0.956,14.3
		c0.165,4.37,0.036,8.75,0.036,13.462c2.902,0.183,5.258,0.331,8.376,0.527c0.098,1.939,0.2,3.97,0.319,6.339
		C124.781,96.215,115.813,96.215,105.479,96.215z"/>
</g>
<g>
</g>
<g>
</g>
<g>
</g>
<g>
</g>
<g>
</g>
<g>
</g>
<g>
</g>
<g>
</g>
<g>
</g>
<g>
</g>
<g>
</g>
</svg>
